<?xml version="1.0" encoding="UTF-8"?>
<svg width="24px" height="24px" viewBox="0 0 24 24" version="1.1" xmlns="http://www.w3.org/2000/svg" xmlns:xlink="http://www.w3.org/1999/xlink">
    <title>fb</title>
    <g id="Symbols" stroke="none" stroke-width="1" fill="none" fill-rule="evenodd">
        <g id="Footer/1920" transform="translate(-456.000000, -392.000000)">
            <g id="follow" transform="translate(368.000000, 352.000000)">
                <g id="fb" transform="translate(88.000000, 40.000000)">
                    <rect id="box" x="0" y="0" width="24" height="24"></rect>
                    <path d="M22,3.10666667 L22,20.8933333 C22,21.5045285 21.5045285,22 20.8933333,22 L15.8,22 L15.8,14.2533333 L18.4,14.2533333 L18.7866667,11.2333333 L15.8,11.2333333 L15.8,9.33333333 C15.8,8.46 16.04,7.86666667 17.2933333,7.86666667 L18.8933333,7.86666667 L18.8933333,5.2 C18.120697,5.11571077 17.3438749,5.07564545 16.5666667,5.08 C14.26,5.08 12.68,6.48666667 12.68,9.08 L12.68,11.3 L10.0733333,11.3 L10.0733333,14.32 L12.6666667,14.32 L12.6666667,22 L3.10666667,22 C2.49547154,22 2,21.5045285 2,20.8933333 L2,3.10666667 C2,2.49547154 2.49547154,2 3.10666667,2 L20.8933333,2 C21.5045285,2 22,2.49547154 22,3.10666667 Z" id="Facebook" fill="#EBCDC3"></path>
                </g>
            </g>
        </g>
    </g>
</svg>