<?xml version="1.0" encoding="UTF-8"?>
<svg width="64px" height="64px" viewBox="0 0 64 64" version="1.1" xmlns="http://www.w3.org/2000/svg" xmlns:xlink="http://www.w3.org/1999/xlink">
    <title>Icons/72x72/mandala</title>
    <g id="Home" stroke="none" stroke-width="1" fill="none" fill-rule="evenodd">
        <g id="Home-1440---New" transform="translate(-800.000000, -2516.000000)">
            <g id="Our-Promise" transform="translate(0.000000, 1840.000000)">
                <g id="icons" transform="translate(763.000000, 672.000000)">
                    <g id="Icons/72x72/mandala" transform="translate(33.000000, 0.000000)">
                        <rect id="Box" x="0" y="0" width="72" height="72"></rect>
                        <path d="M28.4204122,67.999997 C27.5983876,68.0015398 27.0215281,67.4063913 27.0040705,66.536856 C26.987372,65.7840317 27.6173632,65.1579663 28.3763888,65.170333 C29.1058123,65.1826997 29.7676826,65.8945593 29.750225,66.6473836 C29.7320084,67.4118017 29.155908,67.9984482 28.4204122,67.999997 M34.0723443,60.031882 C33.2541148,60.0465675 32.6567616,59.4460084 32.6248826,58.5764732 C32.5990757,57.8568844 33.2108503,57.2207711 33.9516592,57.1975835 C34.6894321,57.1743958 35.3581336,57.8553386 35.3664829,58.6383068 C35.3748322,59.4174104 34.8154303,60.0187423 34.0723443,60.031882 M17.8763327,49.7884473 C17.0687295,49.772216 16.4721354,49.1190984 16.489593,48.270432 C16.5040145,47.5353848 17.1279335,46.9471925 17.8740556,46.9626509 C18.6042382,46.9773364 19.2311941,47.6374103 19.2311941,48.3925534 C19.2319524,49.1932988 18.6391534,49.8039057 17.8763327,49.7884473 M25.5333067,16.5958514 C24.7499923,16.6020348 24.1389767,15.9790611 24.1283504,15.1613115 C24.1192421,14.4610457 24.8145095,13.7654175 25.5302706,13.7592342 C26.2657664,13.7522779 26.8593244,14.3481994 26.8752639,15.1087529 C26.8927215,15.9373234 26.3052357,16.5896681 25.5333067,16.5958514 M59.1357545,32.3799648 C59.1380251,33.220902 58.5444671,33.8562425 57.770261,33.8407841 C56.99985,33.8268715 56.3820032,33.1582955 56.4002198,32.3598689 C56.4169184,31.6673323 57.0780297,31.0165335 57.7770922,31.0049397 C58.5679969,30.9918001 59.1342299,31.5645339 59.1357545,32.3799648 M10.9724639,41.6957406 C10.1618246,41.6849197 9.57282073,41.0464876 9.58192904,40.1862273 C9.59027832,39.4504073 10.2134383,38.8506212 10.9557653,38.8653066 C11.6973333,38.8807651 12.3554085,39.5941704 12.3280835,40.3531781 C12.3007586,41.1183691 11.7072006,41.7057885 10.9724639,41.6957406 M23.2777104,60.5100136 C22.4230476,60.5084646 21.8757902,59.9403682 21.8674409,59.0460995 C21.8598507,58.3102794 22.4647941,57.7097204 23.2162294,57.7073913 C23.9676647,57.70431 24.6249808,58.3937548 24.6075232,59.167448 C24.5900656,59.9542808 24.038254,60.5115563 23.2777104,60.5100136 M5.40577038,30.4099186 C6.14506128,30.4053082 6.73786025,30.9965922 6.75379978,31.7563728 C6.7720164,32.5633015 6.15037446,33.246563 5.4004572,33.246563 C4.62321502,33.2457901 3.9932238,32.5949912 4.00005504,31.7981104 C4.00764529,31.0731113 4.67406974,30.4145832 5.40577038,30.4099186 M55.82837,28.4459554 C55.8389963,29.2582945 55.2773174,29.8959537 54.5349904,29.9137309 C53.7653385,29.9330539 53.126998,29.3100802 53.0920828,28.5062431 C53.0602037,27.7928378 53.7774829,27.0755678 54.5190509,27.0771111 C55.2682091,27.0794324 55.8177436,27.655258 55.82837,28.4459554 M42.7774567,8.30775042 C42.7698665,9.10849579 42.1413933,9.70596314 41.330754,9.68277553 C40.6612934,9.6626796 40.0017002,8.97168891 39.9910739,8.27915238 C39.9796885,7.5046863 40.5960172,6.88093966 41.361874,6.89098763 C42.1694772,6.90180851 42.7842879,7.51705302 42.7774567,8.30775042 M7.75404367,34.5798504 C7.76163393,33.837074 8.37416756,33.2504276 9.12787995,33.2666589 C9.84819521,33.2821173 10.4933669,33.9561038 10.4956552,34.6957884 C10.4986801,35.4764379 9.88083331,36.1156429 9.13774728,36.1017303 C8.33242115,36.085499 7.74493537,35.4401106 7.75404367,34.5798504 M49.8992418,17.0721249 C49.8939286,16.2736983 50.4783783,15.6677288 51.2518253,15.6692717 C52.014646,15.6708205 52.6841066,16.3517632 52.6704441,17.1138626 C52.6582997,17.8829182 52.0548744,18.4726564 51.2670058,18.4888877 C50.5649072,18.5020273 49.9037959,17.81722 49.8992418,17.0721249 M46.0232777,17.191 C45.2733605,17.171677 44.6835976,16.5278345 44.7018142,15.747185 C44.7177538,15.0214129 45.3970816,14.3505181 46.1113247,14.3543661 C46.861242,14.3582473 47.4684624,15.0121379 47.4434146,15.7889227 C47.4160896,16.6213578 46.8179775,17.2118689 46.0232777,17.191 M65.4770271,46.6329232 C65.4626056,47.4220747 64.8143977,48.0257254 64.0090716,48.0017649 C63.336575,47.9808961 62.6496568,47.2126134 62.6807769,46.5162122 C62.714933,45.7742088 63.3418881,45.171331 64.0682756,45.181379 C64.8402046,45.1914269 65.4914485,45.8623217 65.4770271,46.6329232 M46.1611927,26.1150626 C45.4454316,26.1166056 44.7805252,25.4704443 44.7843041,24.776362 C44.7888745,23.91301 45.3467582,23.2799884 46.111097,23.2707133 C46.9103509,23.2598924 47.5327519,23.9207392 47.5183304,24.766314 C47.506186,25.5137279 46.9027607,26.113514 46.1611927,26.1150626 M6.53026676,39.8238823 C5.7507475,39.8161531 5.12379238,39.1529876 5.15187633,38.363836 C5.17540612,37.6612515 5.89344431,36.9841734 6.59857906,37.0011776 C7.3302797,37.0189548 7.92383769,37.6403827 7.92232255,38.3862507 C7.92004257,39.2024545 7.31130406,39.8316115 6.53026676,39.8238823 M46.6437044,30.1189412 C46.6429462,29.2277642 47.1666738,28.6318427 47.9583375,28.6256593 C48.743929,28.618703 49.3283787,29.2347205 49.3344509,30.0733389 C49.3405231,30.8756301 48.7575914,31.4792808 47.9849034,31.4707787 C47.2539618,31.4630495 46.6444643,30.8485779 46.6437044,30.1189412 M31.4357938,28.6504701 C31.4357938,29.455853 30.9097884,30.0216306 30.1484857,30.0332244 C29.3082444,30.046364 28.7511197,29.4628092 28.7442885,28.5646759 C28.7389753,27.7909828 29.293823,27.2151572 30.0574027,27.2027905 C30.8232595,27.1911967 31.4365521,27.8342663 31.4357938,28.6504701 M36.2271524,66.0642926 C36.2233469,66.8457149 35.6669811,67.4223134 34.9094736,67.4284968 C34.0578469,67.4354531 33.4559396,66.7954751 33.4802285,65.9089356 C33.4992041,65.2109886 34.1132558,64.6173859 34.8244627,64.6104296 C35.5698258,64.6027004 36.2301781,65.2882806 36.2271524,66.0642926 M41.1281701,34.0163915 C41.1433506,33.2380608 41.7095836,32.6722832 42.4655731,32.6815583 C43.2473694,32.6908333 43.9137939,33.3516801 43.8993724,34.1021857 C43.8849509,34.8982935 43.2587548,35.4857129 42.4397662,35.4725733 C41.7255232,35.4609795 41.1129895,34.7815826 41.1281701,34.0163915 M18.7117162,34.4115084 C18.6988128,35.1844286 18.1249895,35.7633459 17.3796264,35.751752 C16.5386261,35.7386124 16.001995,35.1473284 16.0103443,34.2422388 C16.0179345,33.4863228 16.6092154,32.9089514 17.3667229,32.9197723 C18.1234714,32.9298203 18.7246197,33.5976233 18.7117162,34.4115084 M41.5328825,54.396134 C40.806495,54.3876319 40.1878892,53.7198288 40.1977565,52.9569566 C40.2083829,52.1909926 40.7897965,51.6035732 41.5366776,51.6043454 C42.2994983,51.6051191 43.0000789,52.2821972 42.9962991,53.0164714 C42.9924887,53.8009855 42.351112,54.4054091 41.5328825,54.396134 M30.1497034,59.579028 C30.1512182,60.3704983 29.610792,60.9586906 28.866947,60.974922 C28.0198745,60.993472 27.4392199,60.3666337 27.4490872,59.4468586 C27.4581955,58.7156761 28.0251876,58.1514443 28.7606834,58.1398505 C29.5280583,58.1274838 30.1489412,58.7713264 30.1497034,59.579028 M26.6310854,25.2364814 C26.6121097,26.0434101 25.9502394,26.7351737 25.2322013,26.6973006 C24.4648264,26.6571088 23.8401484,25.9676639 23.8712684,25.1931978 C23.9001114,24.4805654 24.5946198,23.8390416 25.3248024,23.8498625 C26.0656113,23.8614563 26.648543,24.4805654 26.6310854,25.2364814 M36.3220202,16.1290076 C37.1007804,16.1290076 37.6943384,16.7543001 37.7019287,17.5844164 C37.7095189,18.3465158 37.0696604,18.9872667 36.3182251,18.9710353 C35.6358611,18.9571228 34.9732318,18.314826 34.9641234,17.6601626 C34.95122,16.7689856 35.5182121,16.1290076 36.3220202,16.1290076 M38.2840254,50.3495874 C37.5644691,50.3349019 36.9291647,49.6500946 36.9443452,48.9049995 C36.9595258,48.1467648 37.5508067,47.5585724 38.2961698,47.5577995 C39.0779661,47.5577995 39.7405954,48.2101442 39.7352822,48.9745623 C39.7299691,49.7714431 39.1030139,50.3658188 38.2840254,50.3495874 M15.3732292,44.9158036 C15.3709411,45.6956801 14.8145754,46.2892828 14.0730074,46.3016496 C13.2456695,46.316335 12.6156783,45.6493049 12.6316179,44.7766779 C12.6437623,44.0710017 13.2449105,43.4905386 13.9697799,43.4828094 C14.7500582,43.4750802 15.3762543,44.1142853 15.3732292,44.9158036 M35.0455669,26.6136707 C34.3009628,26.6020768 33.6960194,25.9883782 33.7104409,25.2595144 C33.7278985,24.3876604 34.2804691,23.7863284 35.0607474,23.7901745 C35.8319174,23.7948305 36.4391378,24.4402189 36.4383795,25.2556498 C36.4368607,26.0417097 35.8387486,26.6252645 35.0455669,26.6136707 M34.0286244,20.3204768 C34.0369737,21.151366 33.4950295,21.7186895 32.6965346,21.713279 C31.9602798,21.7078686 31.3356017,21.0941699 31.3378726,20.376127 C31.3401559,19.5058188 31.8851362,18.8890285 32.6623784,18.8766618 C33.4555601,18.8635221 34.0210342,19.4609895 34.0286244,20.3204768 M54.7498706,37.0208871 C54.021206,37.0162496 53.3988051,36.353084 53.4079134,35.5909846 C53.4185397,34.821929 53.990845,34.2376013 54.7407622,34.2298721 C55.4906795,34.2221429 56.2041635,34.909269 56.2079754,35.6396786 C56.2117538,36.4180093 55.5688591,37.0262975 54.7498706,37.0208871 M50.6553071,36.4808477 C51.4568381,36.517175 52.045083,37.1594717 52.0139629,37.9617629 C51.9828429,38.745504 51.3080691,39.3344692 50.5080562,39.2765002 C49.8408727,39.2285792 49.2032912,38.4997154 49.2283391,37.8133622 C49.255664,37.0342586 49.8864142,36.4460663 50.6553071,36.4808477 M25.0233174,37.6496577 C24.2529065,37.6496577 23.6327826,37.0135443 23.6221562,36.2158907 C23.613807,35.4908915 24.3212188,34.8014466 25.0635458,34.8130404 C25.7906923,34.8246342 26.3933586,35.4437433 26.3918434,36.1780176 C26.3910815,36.9756712 25.7641264,37.6496577 25.0233174,37.6496577 M24.786881,40.7311361 C24.7679053,41.5102397 24.2016723,42.0721527 23.4441647,42.0628777 C22.6130317,42.0528297 22.0634972,41.4476332 22.0733646,40.5533644 C22.0824729,39.8082693 22.7010787,39.2069374 23.4403696,39.2278062 C24.1880098,39.2486751 24.8058566,39.9388929 24.786881,40.7311361 M41.8612369,39.8397272 C41.8506106,40.6389267 41.2175833,41.2402587 40.4107391,41.2162981 C39.7427966,41.1969751 39.0930707,40.4990282 39.0892756,39.7979895 C39.0839624,39.018113 39.6934599,38.3920476 40.4524855,38.3966595 C41.2282096,38.4020955 41.8711043,39.0598507 41.8612369,39.8397272 M28.003859,42.6581808 C27.1704489,42.66591 26.6026978,42.0808094 26.578409,41.1904053 C26.5594334,40.466952 27.1795573,39.8316115 27.915053,39.8231094 C28.6429585,39.8146073 29.3222864,40.5218293 29.3200151,41.2847016 C29.3177323,42.0576218 28.7492221,42.6512246 28.003859,42.6581808 M60.9384337,22.7188373 C61.6845558,22.72194 62.2500299,23.3070406 62.2576201,24.0845983 C62.2667284,24.9247626 61.6860739,25.5485093 60.9020005,25.541553 C60.11565,25.5345967 59.5008393,24.8915271 59.5175378,24.0923275 C59.5319593,23.3657825 60.205215,22.7157566 60.9384337,22.7188373 M51.204538,41.9120036 C51.1992249,41.1120312 51.7821565,40.5184285 52.5647119,40.5269306 C53.3427131,40.5354327 54.0030653,41.1970524 53.9909209,41.956833 C53.9787765,42.7181595 53.370797,43.3063518 52.5783743,43.3249018 C51.8770347,43.3403602 51.2090922,42.6540071 51.204538,41.9120036 M31.1037194,42.7649211 C31.1128277,42.0244635 31.7230843,41.4494109 32.4821098,41.4664151 C33.2191237,41.4834194 33.8438017,42.1373099 33.8453205,42.89168 C33.8460788,43.6877879 33.2517618,44.2929844 32.4813508,44.2790719 C31.6669164,44.2651593 31.0938521,43.6352293 31.1037194,42.7649211 M9.11565964,45.6547153 C8.27465931,45.638484 7.73043798,45.0348333 7.75320875,44.1452021 C7.77142536,43.4364342 8.37560971,42.8490149 9.08833472,42.8459129 C9.82686659,42.8428315 10.4986042,43.5384597 10.4955784,44.3021049 C10.492532,45.1013044 9.91187745,45.6701737 9.11565964,45.6547153 M19.7909747,45.6551087 C18.9454202,45.6520101 18.3936086,45.0700012 18.3943669,44.179597 C18.3943669,43.4460957 19.0190457,42.8339429 19.7553005,42.8470825 C20.4801699,42.8602222 21.1238236,43.5226148 21.135209,44.2677099 C21.1488714,45.0730928 20.5818793,45.6574205 19.7909747,45.6551087 M31.0925617,51.108614 C30.2500434,51.1047305 29.6936776,50.518084 29.6929186,49.6323174 C29.6929186,48.9034537 30.3160786,48.29903 31.0591646,48.3059863 C31.7809979,48.3121697 32.4292058,48.9761082 32.4405912,49.7227491 C32.4534946,50.5242674 31.8819483,51.1124597 31.0925617,51.108614 M26.7926819,52.2981194 C25.9668621,52.2857526 25.3945568,51.6604602 25.4112554,50.789379 C25.4241588,50.0682445 26.0867881,49.4367686 26.7995132,49.4661396 C27.538045,49.4962835 28.1733494,50.2089159 28.1513377,50.9826091 C28.130085,51.7624856 27.5638519,52.3097132 26.7926819,52.2981194 M20.9213086,54.7063842 C20.9228336,53.933464 21.4852716,53.3746427 22.2564415,53.3784873 C23.0207803,53.3823719 23.6295188,54.0370353 23.6226876,54.844737 C23.6150973,55.6083822 23.0276115,56.2174433 22.3035011,56.213597 C21.4791994,56.2089412 20.9190385,55.5975613 20.9213086,54.7063842 M56.9439099,55.3634437 C56.9340425,54.605209 57.5078658,53.9961478 58.2509519,53.9768248 C59.0403385,53.9551831 59.7113171,54.5750651 59.7302927,55.3425749 C59.7492683,56.1433202 59.1572284,56.7485168 58.3291315,56.7717044 C57.6338641,56.7918003 56.9522591,56.0984909 56.9439099,55.3634437 M38.3589412,34.4469854 C37.6158552,34.4547146 36.9638522,33.8580202 36.9509488,33.1562086 C36.9350092,32.2944025 37.5429887,31.6026389 38.3111226,31.611141 C39.0792564,31.6196432 39.6849589,32.2673503 39.6880069,33.0850999 C39.6910311,33.8510639 39.1172077,34.4392562 38.3589412,34.4469854 M32.1251401,14.0948361 C32.1463928,13.2253009 32.7103488,12.6479294 33.5058076,12.6796192 C34.2731825,12.7097631 34.8545961,13.3829766 34.8189219,14.1991804 C34.7862838,14.9543234 34.1790633,15.5386511 33.4435675,15.5231927 C32.6890961,15.5069614 32.1061645,14.8754856 32.1251401,14.0948361 M50.0289592,14.2355849 C49.2942225,14.244087 48.6505688,13.6033361 48.6422195,12.8559223 C48.6331112,12.0582686 49.2076936,11.4747138 50.0001163,11.4762566 C50.8024063,11.4778055 51.4361926,12.1007792 51.4286024,12.8822016 C51.4210121,13.6690344 50.8449117,14.2263099 50.0289592,14.2355849 M55.3087473,56.3903456 C55.305705,57.2026847 54.7060748,57.7754186 53.8734237,57.762279 C53.2009271,57.7506852 52.5504422,57.07438 52.5375387,56.3694767 C52.5215992,55.591919 53.1197114,54.9766744 53.8961945,54.9720369 C54.6870991,54.9666265 55.3110182,55.5934648 55.3087473,56.3903456 M42.7670581,11.7514965 C42.7928649,10.9994452 43.4357596,10.400432 44.2000983,10.4158904 C44.9712683,10.4321217 45.5162487,11.049685 45.4775384,11.8658887 C45.4403461,12.6704987 44.8308486,13.2841974 44.099907,13.2517347 C43.3143155,13.2169533 42.7389741,12.5692462 42.7670581,11.7514965 M42.0962313,63.9508195 C42.1068576,64.7770712 41.5284801,65.3629447 40.6965881,65.3683706 C40.0119471,65.3722198 39.3166796,64.6472206 39.3242699,63.9369069 C39.3303421,63.1856284 39.9147918,62.578886 40.6525646,62.5549255 C41.4336019,62.5301921 42.0863639,63.1616679 42.0962313,63.9508195 M64.3844857,30.9854621 C63.653544,30.9939642 63.0182396,30.34703 63.0129265,29.5880223 C63.0076133,28.7919145 63.5867498,28.1983117 64.3723413,28.197536 C65.1101141,28.195993 65.7780566,28.8390626 65.7993093,29.571791 C65.8228391,30.3578509 65.2034742,30.9754141 64.3844857,30.9854621 M25.6785842,30.9892494 C24.8937518,30.9807473 24.2986757,30.3415423 24.3123382,29.5222468 C24.3252416,28.7817892 24.9817987,28.1425842 25.7233667,28.1495405 C26.4618986,28.1549509 27.0546975,28.7671037 27.0509205,29.5183822 C27.0455892,30.3384506 26.4307785,30.9969786 25.6785842,30.9892494 M16.2181655,31.0175383 C15.3301055,31.0260404 14.7752579,30.4517607 14.7760161,29.5273481 C14.7775349,28.8340386 15.3817193,28.2528026 16.1103838,28.2458463 C16.9005294,28.23889 17.5160992,28.8564533 17.5206533,29.6610633 C17.5259665,30.4463502 16.9847813,31.0098091 16.2181655,31.0175383 M50.1097196,62.7571214 C49.4273556,62.7200213 48.7761117,61.9633324 48.815581,61.2537916 C48.8580864,60.4924651 49.4645478,59.9174125 50.2030797,59.9375084 C50.9522379,59.9583773 51.6452283,60.6833764 51.608036,61.4060569 C51.5662896,62.1921167 50.8922749,62.800405 50.1097196,62.7571214 M14.6201138,58.3652341 C14.6208721,59.1636607 14.0925903,59.7348487 13.3396369,59.7503071 C12.5297566,59.7657655 11.9301264,59.1474293 11.918741,58.2848504 C11.9088737,57.5196593 12.4751068,56.9384233 13.2371685,56.931467 C14.0235189,56.9245107 14.619354,57.542074 14.6201138,58.3652341 M35.3658181,30.43066 C35.3620046,31.1711175 34.7555432,31.8018205 34.0344689,31.815733 C33.3460327,31.8296456 32.6302716,31.1525675 32.6295096,30.4870831 C32.6279946,29.5935873 33.1972637,28.9621115 33.9995538,28.9667237 C34.7843862,28.9713865 35.3695949,29.5982249 35.3658181,30.43066 M12.3607975,30.2902976 C13.1008475,30.2987998 13.7300797,30.9441882 13.7354184,31.6993312 C13.739947,32.4884828 13.1350036,33.1176399 12.3820503,33.1060461 C11.57217,33.0936793 10.9892383,32.4598848 10.993015,31.5957599 C10.9968286,30.8468002 11.5888685,30.2817955 12.3607975,30.2902976 M46.8831026,55.4441366 C46.8838609,56.2479736 46.2736044,56.8315284 45.4439894,56.8207075 C44.7707337,56.8114325 44.1005142,56.1343544 44.0845746,55.4456824 C44.0678761,54.675081 44.6735785,54.0466968 45.4439894,54.0358759 C46.2273038,54.0242821 46.8823429,54.6658059 46.8831026,55.4441366 M16.8052717,15.9014771 C16.0029817,15.8975953 15.417014,15.2838966 15.4276403,14.4599636 C15.4359896,13.7125498 16.0728121,13.0841656 16.8257654,13.0795281 C17.5597431,13.0741177 18.1616504,13.681633 18.1669636,14.4336844 C18.1722768,15.2560715 17.5703695,15.9053245 16.8052717,15.9014771 M54.9455473,50.9704743 C54.9523786,50.1913707 55.5057082,49.625593 56.270047,49.6170909 C57.0359038,49.6078159 57.7281351,50.2725273 57.7311772,51.0191682 C57.7334482,51.7959531 57.0852404,52.4150622 56.2768782,52.4065601 C55.5535268,52.3996038 54.9387161,51.7372111 54.9455473,50.9704743 M39.4908001,16.0241223 C39.5006674,15.1228973 40.0190819,14.5671677 40.8365524,14.5810803 C41.6153127,14.5949928 42.2005214,15.2388354 42.1823048,16.0612225 C42.1633291,16.8465095 41.5470004,17.4439768 40.7803845,17.4176975 C40.0494429,17.3929641 39.4816918,16.7800383 39.4908001,16.0241223 M38.2381043,29.7079795 C37.4790788,29.7180275 36.8490875,29.1422019 36.833148,28.424159 C36.8141724,27.5553967 37.4115255,26.8759998 38.1857316,26.8860477 C38.9690459,26.8960957 39.5527366,27.5175236 39.5618449,28.3507316 C39.5709532,29.1089663 38.9956118,29.6979316 38.2381043,29.7079795 M28.0534993,17.138596 C28.0664027,16.2551482 28.6136602,15.675458 29.4136731,15.6978727 C30.2038187,15.7195145 30.7571483,16.3378507 30.7434859,17.1865171 C30.7305825,17.9934458 30.1544821,18.5453109 29.349915,18.5198045 C28.6129011,18.495844 28.0421139,17.8883287 28.0534993,17.138596 M19.4129166,19.1950276 C19.4091089,20.0460128 18.8360446,20.654301 18.0489351,20.6419343 C17.27397,20.6303405 16.710014,20.0406024 16.7016647,19.2313549 C16.6917974,18.4638451 17.3567038,17.796042 18.1218016,17.805317 C18.8656466,17.8145921 19.4159402,18.406649 19.4129166,19.1950276 M49.2158152,25.9410755 C49.2211283,25.0545359 49.7607955,24.4593874 50.5509411,24.4702082 C51.3274243,24.4794833 51.9027657,25.1132779 51.8966935,25.9511234 C51.8906213,26.7642355 51.3251472,27.321511 50.5220982,27.3068255 C49.7721809,27.292913 49.211261,26.7054936 49.2158152,25.9410755 M12.3407593,27.3062139 C11.5187346,27.3085259 10.9426342,26.7064211 10.9236585,25.825292 C10.907719,25.1142054 11.5490956,24.4742274 12.2800372,24.4711255 C13.015533,24.4680441 13.669054,25.165991 13.6629818,25.9474134 C13.6569096,26.7288358 13.0975077,27.3038884 12.3407593,27.3062139 M8.23807428,50.2749265 C7.40997739,50.2733775 6.83767211,49.6728185 6.8255277,48.7924623 C6.81490134,48.0836945 7.46538625,47.439079 8.18873762,47.440622 C8.92195631,47.4437165 9.58230855,48.1524844 9.56940512,48.9254046 C9.55726071,49.706054 8.99482277,50.2764692 8.23807428,50.2749265 M25.2286338,45.9366766 C25.2180075,46.7119156 24.6472203,47.2970162 23.8995801,47.2977898 C23.06617,47.2985621 22.4589496,46.6315319 22.4877925,45.748857 C22.5105633,45.05091 23.1306872,44.4642636 23.8456893,44.46349 C24.5864982,44.4627177 25.2392602,45.1583459 25.2286338,45.9366766 M47.3070936,36.4015461 C46.6216935,36.412367 45.9628593,35.7600223 45.9431246,35.0489357 C45.9203539,34.2396882 46.4774786,33.6344916 47.2577569,33.6236708 C48.0532157,33.6136228 48.7128089,34.2280944 48.7295075,34.99715 C48.7469651,35.7932579 48.1442988,36.3884065 47.3070936,36.4015461 M56.2775613,21.2367737 C55.5595231,21.2274987 54.933327,20.5519664 54.9462305,19.7968233 C54.9591339,19.0130822 55.5747036,18.4217982 56.3496687,18.4511692 C57.098827,18.4782214 57.7371675,19.131339 57.7326375,19.8671591 C57.7273001,20.6632669 57.1071763,21.2475946 56.2775613,21.2367737 M43.3748857,45.8702055 C42.6727871,45.865568 42.0010495,45.1583459 42.0154709,44.4387572 C42.0306515,43.6526973 42.640149,43.0583217 43.4151141,43.0737801 C44.1824889,43.0892385 44.7821191,43.7029371 44.7851738,44.4774032 C44.7889504,45.3052008 44.2113319,45.8756159 43.3748857,45.8702055 M46.8801417,21.4949291 C46.0429365,21.4848811 45.4827756,20.8858679 45.4857994,20.003193 C45.4880888,19.2921064 46.1378147,18.6652681 46.8642022,18.6768619 C47.5974209,18.6884557 48.2486648,19.4010882 48.2274121,20.1709167 C48.2069184,20.9569766 47.6505526,21.5042041 46.8801417,21.4949291 M32.7432905,7.07216013 C32.7334232,7.86053877 32.1512506,8.44873108 31.3717313,8.4572332 C30.6529341,8.4649624 29.9569077,7.73764446 29.9720882,6.99486811 C29.9857507,6.25827512 30.6005614,5.66389946 31.3436474,5.66697913 C32.1679492,5.67008282 32.7531579,6.2575022 32.7432905,7.07216013 M13.839607,18.7572456 C14.5902833,18.7425601 15.1633476,19.3114294 15.1838413,20.0897601 C15.205094,20.9368807 14.6434151,21.5814961 13.8722451,21.5938629 C13.066919,21.6062296 12.4877825,21.0126268 12.4832107,20.1716896 C12.4794332,19.4064986 13.0881717,18.7719311 13.839607,18.7572456 M51.54109,20.1755542 C52.313019,20.1685979 52.9270707,20.8031655 52.937697,21.6193692 C52.9483234,22.3837874 52.3160551,23.0284028 51.5661378,23.0191278 C50.8746655,23.0113986 50.2135543,22.3837874 50.2021689,21.7244864 C50.1862293,20.827126 50.7425951,20.1825105 51.54109,20.1755542 M16.4005593,42.5547641 C15.5618361,42.5671308 14.9887717,41.9858948 14.9682781,41.1032199 C14.9530975,40.3612165 15.5367882,39.7583387 16.2927777,39.7374698 C17.0259964,39.7181468 17.7129145,40.4168667 17.7106431,41.1789661 C17.7068423,41.9588426 17.1489585,42.5439432 16.4005593,42.5547641 M10.9687446,21.9637052 C10.9528051,22.7953674 10.3516569,23.4144765 9.57441469,23.3974722 C8.81614815,23.380468 8.22942139,22.7613589 8.22408732,21.9729802 C8.21955405,21.258029 8.960363,20.5299382 9.67081093,20.5484882 C10.3782228,20.5678113 10.9824071,21.2263393 10.9687446,21.9637052 M22.0688104,24.0227647 C22.057425,24.834331 21.4236387,25.4936319 20.6714443,25.4758548 C19.9025515,25.4573047 19.2702832,24.7771349 19.2976081,23.9957125 C19.3218969,23.2823071 20.0103331,22.643875 20.7450698,22.6531501 C21.4889149,22.6624251 22.0794368,23.2730321 22.0688104,24.0227647 M30.5055314,25.4191997 C29.7882522,25.4191997 29.1203097,24.7730384 29.1279,24.0851394 C29.1354902,23.2449751 29.722217,22.5748532 30.4569537,22.5663511 C31.2448223,22.5570761 31.8687413,23.2295167 31.8573559,24.0766373 C31.8482476,24.8364179 31.2607618,25.4191997 30.5055314,25.4191997 M12.3652758,36.8016096 C12.3584446,36.0356457 12.9307498,35.4327679 13.6723178,35.4258116 C14.4116087,35.4188553 15.0651297,36.1036626 15.066651,36.8897225 C15.0681658,37.6850574 14.5322938,38.2485163 13.766437,38.2554726 C12.8905215,38.2639747 12.3736251,37.7267951 12.3652758,36.8016096 M24.3146903,10.2185638 C24.3139321,9.33047848 24.8369007,8.73996742 25.6338776,8.72991946 C26.4498301,8.7198715 27.0054368,9.29415123 27.0137861,10.1567302 C27.0206173,10.962886 26.4361676,11.5858597 25.6779011,11.5781305 C24.9795976,11.5711743 24.3146903,10.9080087 24.3146903,10.2185638 M43.1465716,58.9909903 C43.1473299,59.8025565 42.5499767,60.3837926 41.7180847,60.3799471 C41.0068778,60.3768363 40.361706,59.6858456 40.3746095,58.9399775 C40.3882719,58.1662844 40.952987,57.5958693 41.7120125,57.588913 C42.5097484,57.5811838 43.1465716,58.2033846 43.1465716,58.9909903 M29.856185,10.2769966 C30.6493667,10.2646299 31.2406476,10.8582326 31.2694906,11.6968511 C31.2960565,12.4450379 30.6508848,13.1290723 29.9199432,13.1290723 C29.2201216,13.1290723 28.5332034,12.4612692 28.5324444,11.7803265 C28.5324444,10.9053808 29.0751477,10.2893633 29.856185,10.2769966 M16.3405204,57.0296279 C16.3344482,56.262891 16.9059944,55.6677424 17.6528756,55.6630944 C18.3974797,55.6600132 19.0434104,56.3394101 19.041895,57.1270158 C19.0411333,57.9238966 18.5060203,58.4803992 17.7363684,58.4865825 C16.86273,58.4943117 16.3481106,57.9563593 16.3405204,57.0296279 M38.5093801,13.6426778 C37.6554763,13.6380403 37.113532,13.069171 37.1059418,12.1718106 C37.0998696,11.4545406 37.7253066,10.8632566 38.4805371,10.8709858 C39.2547432,10.878715 39.8703129,11.5326055 39.8528553,12.3271675 C39.8346387,13.1116816 39.2881403,13.6473153 38.5093801,13.6426778 M55.966209,25.7806945 C55.1957981,25.7629173 54.6356372,25.1608125 54.6394132,24.3554296 C54.6432275,23.6188366 55.3582295,22.9301647 56.0906892,22.9595356 C56.855787,22.9896795 57.3787556,23.6041511 57.3483946,24.4365862 C57.3180336,25.2651567 56.768499,25.7992446 55.966209,25.7806945 M38.3389029,54.8063879 C39.113109,54.8094918 39.7203294,55.4502427 39.7218482,56.2625818 C39.7226065,57.0154062 39.0713626,57.6600216 38.3259995,57.6430174 C37.6087203,57.6260131 36.9673437,56.9690309 36.9855603,56.2679923 C37.0083311,55.3853174 37.5472392,54.8033084 38.3389029,54.8063879 M28.6294479,55.590605 C28.6104722,56.3650711 28.0222274,56.9501717 27.2844546,56.9285299 C26.4290328,56.9037965 25.8931607,56.2761852 25.9280759,55.3417247 C25.9561598,54.6182713 26.5489588,54.0733626 27.2867317,54.0934585 C28.0374079,54.1127815 28.6491826,54.796043 28.6294479,55.590605 M20.5618411,61.5893935 C20.5550098,62.3576763 19.9804275,62.9559165 19.2441727,62.9620999 C18.4259431,62.9690562 17.8027831,62.2904322 17.8263129,61.4170323 C17.8452886,60.7051728 18.4380875,60.1448056 19.1743423,60.1424841 C19.9432352,60.140941 20.5686723,60.7932857 20.5618411,61.5893935 M40.8427757,20.2732513 C40.8420174,19.5134708 41.4188769,18.9569682 42.2006732,18.9639245 C42.9513495,18.9693349 43.5691963,19.5923086 43.5843768,20.3598184 C43.6003163,21.1366033 42.9855056,21.7827646 42.2393835,21.7734895 C41.4203949,21.7634416 40.8427757,21.1435595 40.8427757,20.2732513 M60.8213161,44.5614203 C60.0812661,44.5621926 59.4816359,43.9268521 59.4839065,43.1438839 C59.4861901,42.3184051 60.0334475,41.7619025 60.8372556,41.767313 C61.5735104,41.7719505 62.245248,42.4320244 62.2528383,43.1570236 C62.2604285,43.9430834 61.6311963,44.5598738 60.8213161,44.5614203 M40.4565842,44.1443519 C40.4421628,44.9466431 39.8174847,45.528652 38.9962191,45.5039186 C38.2903253,45.4830497 37.657298,44.7711902 37.6861409,44.0299597 C37.7157429,43.2585853 38.2933614,42.7005369 39.0523869,42.7121307 C39.854677,42.7252703 40.4717648,43.3544274 40.4565842,44.1443519 M26.7800821,63.108491 C26.7876724,63.9138739 26.2692579,64.4904724 25.5208587,64.5105683 C24.6973159,64.5337559 24.0992038,63.9362886 24.0787101,63.0729366 C24.0604935,62.2953789 24.6054739,61.7218721 25.3736077,61.7087324 C26.1751387,61.6948199 26.7717328,62.2891955 26.7800821,63.108491 M37.7495955,4.00003406 C38.5048259,4.00621742 39.0520833,4.57972424 39.0559056,5.3688758 C39.0604326,6.22217974 38.4904044,6.84206178 37.70709,6.83665133 C36.9207395,6.83124089 36.3264225,6.19512754 36.3423621,5.37505916 C36.3567836,4.63460157 37.0118226,3.99462362 37.7495955,4.00003406 M66.5858875,37.4435972 C65.829898,37.4520993 65.2188825,36.8368548 65.2143081,36.0623887 C65.2105332,35.2662808 65.7426101,34.7051408 66.510744,34.693547 C67.3289735,34.6819531 67.9741453,35.2670538 67.9991931,36.0430657 C68.025,36.8438111 67.4291649,37.4343221 66.5858875,37.4435972 M51.7826878,30.7677305 C52.5576529,30.781643 53.1428616,31.421621 53.1375485,32.2494186 C53.1322353,33.0161554 52.4900996,33.6414479 51.7363873,33.612077 C51.0532642,33.5857977 50.393671,32.9280425 50.4005023,32.2811083 C50.4088515,31.3891583 50.9902651,30.753045 51.7826878,30.7677305 M28.5479285,35.0621595 C27.7076872,35.0644714 27.1414542,34.4816895 27.1293098,33.5997875 C27.1194424,32.8763342 27.7486746,32.2402208 28.473544,32.2417639 C29.2280154,32.2425396 29.8815365,32.9273469 29.869392,33.7033588 C29.8580067,34.4948292 29.3084722,35.0606068 28.5479285,35.0621595 M12.7788688,50.5134465 C11.9416636,50.4979881 11.4126228,49.9012937 11.4331165,48.996977 C11.449056,48.2495631 12.0638667,47.6806938 12.8213742,47.7116107 C13.5788818,47.7417545 14.1686446,48.4180598 14.1428378,49.2249885 C14.1177899,50.01414 13.5743276,50.528132 12.7788688,50.5134465 M32.3800968,34.8938879 C32.3945183,34.0243526 32.950884,33.4191561 33.7281262,33.429204 C34.5190309,33.4407978 35.0845049,34.0544965 35.0791917,34.8985254 C35.0738785,35.7046812 34.4992962,36.2704588 33.7030784,36.2526817 C32.9561972,36.2356774 32.3687114,35.6335725 32.3800968,34.8938879 M48.4419127,47.9119516 C47.7117301,47.9042224 47.1022326,47.248786 47.1120999,46.4805033 C47.1219672,45.6743475 47.6957906,45.126347 48.5071889,45.1487617 C49.2684915,45.1696306 49.9030369,45.8057439 49.8985071,46.5446557 C49.8931696,47.3415364 49.2760818,47.9212266 48.4419127,47.9119516 M43.4074479,50.2752325 C42.6871327,50.2806429 42.0161541,49.6159315 42.0138651,48.8955699 C42.0108409,48.099462 42.5877003,47.5213177 43.379364,47.525163 C44.2067018,47.5298198 44.7926696,48.1118288 44.7850793,48.9241679 C44.7790071,49.7249133 44.2234004,50.2698221 43.4074479,50.2752325 M51.6507427,46.7065825 C51.646215,45.90661 52.2291467,45.2983218 52.9942444,45.3052781 C53.7396075,45.3114614 54.4341159,46.0155918 54.4212125,46.7506389 C54.4083091,47.5019174 53.7897032,48.1017035 53.0071479,48.1217994 C52.3050492,48.1403495 51.6553233,47.4624985 51.6507427,46.7065825 M34.374057,45.404521 C35.1444679,45.4099315 35.7539654,46.0622762 35.7471342,46.8715236 C35.740303,47.6027062 35.1239742,48.2287716 34.3991048,48.2411383 C33.6833437,48.253505 33.0161602,47.6173917 33.009329,46.9171259 C33.0017388,46.0205385 33.5634177,45.3991106 34.374057,45.404521 M40.5648144,25.5459586 C40.5625442,24.6849255 41.1227051,24.0449475 41.8862848,24.0379912 C42.6673221,24.031035 43.2540489,24.6485982 43.2646752,25.4887625 C43.2737835,26.2902808 42.6870568,26.9070712 41.922718,26.9001149 C41.2054389,26.8931586 40.5670984,26.2562723 40.5648144,25.5459586 M23.8321793,19.3543265 C23.8329376,20.1666656 23.2059825,20.8460625 22.4674506,20.83215 C21.6970397,20.8182374 21.0700846,20.1519802 21.0852651,19.3643744 C21.0989275,18.6347377 21.7570027,18.0071265 22.5046429,18.0109733 C23.2651865,18.0148557 23.8321793,18.5883625 23.8321793,19.3543265 M63.9404557,33.8012878 C63.9328655,34.6360417 63.3985115,35.1886797 62.6053297,35.1824963 C61.8007626,35.17554 61.2368066,34.5695705 61.2580594,33.731725 C61.2755169,32.9874028 61.9260019,32.3528353 62.6637747,32.3597916 C63.4326676,32.3667479 63.948046,32.9479839 63.9404557,33.8012878 M60.990351,20.8805548 C60.2594094,20.8774431 59.6271411,20.2227797 59.6332133,19.4745929 C59.6385265,18.6893059 60.2320845,18.1196637 61.0313384,18.1328033 C61.8100987,18.1451701 62.4120059,18.7434103 62.4195962,19.511693 C62.4279455,20.3271239 61.8457729,20.8843994 60.990351,20.8805548 M28.2692144,47.0620485 C27.426696,47.056638 26.8771615,46.466127 26.8855107,45.5757229 C26.892342,44.8298548 27.4950083,44.2493917 28.2525158,44.2594397 C28.9766262,44.2694877 29.6157257,44.934972 29.6210389,45.6831588 C29.6271111,46.4931792 29.0639141,47.0674589 28.2692144,47.0620485 M60.314287,50.650408 C59.5871405,50.6442246 58.9541132,49.9764215 58.9654985,49.2266889 C58.9761249,48.4622708 59.5469121,47.8918557 60.3044196,47.8864452 C61.1196131,47.8802619 61.7359419,48.4785021 61.7382256,49.2769287 C61.740496,50.0962242 61.1583234,50.6573643 60.314287,50.650408 M57.2003846,44.0952639 C58.0057107,44.0975902 58.6417741,44.7190181 58.6334249,45.4934842 C58.6243166,46.29964 58.0269634,46.8545967 57.1783729,46.8453217 C56.4330097,46.8368195 55.847801,46.2007062 55.8614635,45.4146463 C55.875885,44.6262676 56.4170702,44.0929527 57.2003846,44.0952639 M54.7750702,62.4144149 C54.0319842,62.4167274 53.4080652,61.7798411 53.4095804,61.0200605 C53.4111013,60.2224068 53.938624,59.6751793 54.7181433,59.6643584 C55.5310597,59.6543104 56.1868578,60.2502319 56.2065924,61.0185147 C56.2270861,61.8030287 55.6031671,62.4120898 54.7750702,62.4144149 M32.8389286,63.1397942 C32.8396868,63.9289458 32.2939474,64.5070902 31.5470663,64.5109738 C30.709102,64.5148194 30.1481821,63.9297187 30.1390738,63.0416334 C30.1322426,62.2679402 30.6840542,61.7098918 31.4597783,61.708343 C32.2499239,61.7068001 32.8389286,62.318953 32.8389286,63.1397942 M8.57606836,27.0567085 C9.3639369,27.0451147 9.98330176,27.662678 9.99468714,28.4719255 C10.0060725,29.241754 9.44439361,29.8492694 8.70054855,29.871684 C7.88459607,29.8956446 7.24397849,29.2239769 7.25232778,28.3528958 C7.25991803,27.6286695 7.83298233,27.0675294 8.57606836,27.0567085 M19.8487365,9.72296738 C19.8677122,8.83642787 20.4119335,8.26214813 21.2119465,8.28456282 C21.9838755,8.30620458 22.563771,8.95854927 22.5478314,9.784801 C22.5318919,10.5484462 21.9489603,11.1242718 21.1937298,11.1211925 C20.4316682,11.1180884 19.832797,10.4958876 19.8487365,9.72296738 M51.9806417,53.0126068 C51.2330015,53.020336 50.6098415,52.4027728 50.5992152,51.6422192 C50.5878298,50.8159675 51.1259789,50.2610108 51.9373772,50.2633223 C52.7487756,50.2648754 53.3764897,50.8747094 53.3727117,51.6561318 C53.3681404,52.4360083 52.7859678,53.0041047 51.9806417,53.0126068 M64.0597745,41.3701093 C63.3493266,41.3701093 62.6654446,40.6721623 62.6813841,39.9641674 C62.6980827,39.1974305 63.2681109,38.6231507 64.0225823,38.6131028 C64.8385348,38.601509 65.4654899,39.192793 65.4761162,39.9842633 C65.4875016,40.7973754 64.9015339,41.3701093 64.0597745,41.3701093 M18.5953709,52.7566929 C18.5983937,53.5620758 18.0792202,54.1309451 17.3232308,54.151814 C16.4936158,54.1750016 15.8863954,53.5280673 15.8939856,52.629934 C15.9000578,51.8972056 16.4579416,51.3468864 17.2048228,51.3352926 C17.9949684,51.3229259 18.5930805,51.9343058 18.5953709,52.7566929 M54.4563546,15.3772654 C54.4563546,14.5912055 55.0036128,14.0068778 55.7444218,13.9976028 C56.4890258,13.9883277 57.1433059,14.6615412 57.1546913,15.4483741 C57.1660766,16.2375256 56.5702416,16.844268 55.7945174,16.8334471 C54.9861552,16.8218533 54.4555963,16.2444819 54.4563546,15.3772654 M47.6866064,7.41974236 C48.4388007,7.4251528 49.0619607,8.04889944 49.0763822,8.81099879 C49.0915627,9.58855655 48.4744749,10.233172 47.7237986,10.2262157 C46.9070871,10.2184865 46.3347818,9.59937744 46.3378059,8.72829633 C46.340095,7.95924069 46.9025329,7.41433192 47.6866064,7.41974236 M33.2095599,54.6920079 C33.2004516,55.4626094 32.6289054,56.0554392 31.8941686,56.0554392 C31.074421,56.0554392 30.508188,55.4440593 30.508188,54.5567469 C30.508947,53.7822808 31.0645537,53.2350533 31.845591,53.2381319 C32.6289054,53.2420095 33.2194273,53.8703937 33.2095599,54.6920079 M34.5941744,40.3609073 C34.612391,39.4751407 35.1611665,38.8830838 35.9422038,38.9047256 C36.7338675,38.9271403 37.2894742,39.5408389 37.2818839,40.3871866 C37.2742937,41.1995258 36.7065425,41.7482991 35.8974213,41.7266574 C35.1421908,41.7065614 34.5782348,41.1152775 34.5941744,40.3609073 M59.9496511,36.002639 C60.7724348,36.0041878 61.3758601,36.5946989 61.3743449,37.3962171 C61.372824,38.2131938 60.7860973,38.7666047 59.9337116,38.7526922 C59.2460344,38.7410984 58.5925134,38.0794786 58.581887,37.3823046 C58.5705016,36.5977905 59.1617826,36.0010961 59.9496511,36.002639 M47.559166,43.6111142 C46.8229112,43.6111142 46.1822936,42.9657258 46.1800098,42.2229495 C46.1777394,41.4268416 46.7553579,40.8541077 47.5538528,40.8618369 C48.3644921,40.8695661 48.9876521,41.4902211 48.9709535,42.2739622 C48.955014,43.0553846 48.3690462,43.6111142 47.559166,43.6111142 M27.9489815,20.8552603 C27.9398732,21.6822849 27.3857845,22.2913461 26.6358672,22.2975295 C25.8631792,22.3037128 25.2445734,21.6583244 25.2475984,20.8498498 C25.2506456,20.0661087 25.8965763,19.4415892 26.6852039,19.4609122 C27.4434704,19.4786893 27.9573307,20.0460128 27.9489815,20.8552603 M31.9228027,37.6504306 C31.9189888,38.4233509 31.3482016,39.0208182 30.6081516,39.0300932 C29.8643066,39.0385954 29.2123036,38.3862507 29.223689,37.6457931 C29.2381105,36.7808953 29.8081387,36.1571487 30.5747545,36.1695154 C31.3557918,36.1826551 31.926579,36.8094934 31.9228027,37.6504306 M19.7709364,36.8144401 C20.501878,36.8283527 21.1394595,37.4907453 21.1341463,38.2312029 C21.1280741,39.0265378 20.5413474,39.6000446 19.7481657,39.5853591 C18.9132375,39.5706737 18.3477635,38.9577479 18.363703,38.0828022 C18.3750884,37.3624405 19.0005255,36.7997546 19.7709364,36.8144401 M49.5841703,57.7942779 C48.8486745,57.8004612 48.1981896,57.1597104 48.1898403,56.4207986 C48.180732,55.6393763 48.7788441,55.0395901 49.5613995,55.0450006 C50.3705208,55.050411 50.9868495,55.6633368 50.9792593,56.4563529 C50.972428,57.250915 50.4130262,57.7873216 49.5841703,57.7942779 M42.1822289,29.8872197 C42.2012045,29.0138199 42.7712327,28.4047587 43.5416436,28.4333568 C44.322681,28.4627277 44.8980223,29.1065703 44.8805647,29.9312762 C44.8631072,30.7196548 44.2498145,31.3109388 43.4786445,31.280022 C42.7446668,31.250651 42.1655303,30.6284502 42.1822289,29.8872197 M12.5075931,55.0569809 C11.6650747,55.0515704 11.1079499,54.4618323 11.1109737,53.5768386 C11.1132631,52.8549311 11.7485675,52.2365949 12.4787501,52.2458699 C13.2188,52.255145 13.8738391,52.9646858 13.8518274,53.7329685 C13.8290566,54.5244388 13.2833172,55.0616184 12.5075931,55.0569809 M34.3681366,52.4887215 C34.3909073,51.6292342 34.9837063,51.0139897 35.7488041,51.0518628 C36.5328775,51.0905088 37.0862071,51.7289409 37.0657134,52.5683323 C37.0459788,53.3273399 36.4402764,53.9286719 35.7123708,53.9124406 C34.9639716,53.8954363 34.3476429,53.2423187 34.3681366,52.4887215 M45.7661199,62.055156 C45.0412505,62.055156 44.4203675,61.3950814 44.4218828,60.6291174 C44.4249217,59.8376471 45.0230338,59.2448173 45.8017941,59.2618215 C46.5388079,59.2780529 47.2006782,59.9365809 47.2082684,60.6615801 C47.2173768,61.4430024 46.5828314,62.0559282 45.7661199,62.055156 M22.3089661,51.8226221 C21.4489901,51.821073 20.9191903,51.2599329 20.9214601,50.3540704 C20.9229854,49.5850147 21.4892185,49.0184642 22.2550753,49.0192363 C23.0209321,49.020783 23.6304296,49.6723547 23.6213213,50.4816022 C23.613731,51.2815747 23.0831722,51.8241647 22.3089661,51.8226221 M20.499601,27.4129475 C21.2806383,27.4036724 21.9129066,28.0320566 21.9182197,28.8235269 C21.9242919,29.6080409 21.3815887,30.1730456 20.6119367,30.1838665 C19.7489247,30.1970062 19.1971131,29.6474599 19.1751014,28.7524182 C19.1553667,28.008869 19.7367803,27.4214496 20.499601,27.4129475 M43.70028,65.2921452 C43.7048341,64.4913999 44.2262847,63.9588578 45.0133942,63.9511286 C45.8050579,63.9426265 46.4767955,64.5810586 46.4714823,65.3377475 C46.4676872,66.1268991 45.8475633,66.7166372 45.0255386,66.7150944 C44.2832116,66.7135456 43.6949668,66.0828426 43.70028,65.2921452 M47.7392827,52.4393319 C46.9590044,52.4393319 46.3866992,51.8534583 46.3889695,51.0550317 C46.3912533,50.2550593 46.91574,49.7016484 47.6831148,49.6892817 C48.4846458,49.6769149 49.141962,50.2836573 49.1616966,51.0542588 C49.1814313,51.8480479 48.5757289,52.4393319 47.7392827,52.4393319 M35.2709216,8.01527741 C36.0534769,8.02764413 36.6842272,8.63206776 36.6827119,9.37020658 C36.6811911,10.1462185 36.026911,10.7784673 35.2390425,10.7645547 C34.4716677,10.7506421 33.857616,10.0843849 33.8819048,9.29136872 C33.9046756,8.53390689 34.482294,8.0036836 35.2709216,8.01527741 M44.6898216,40.0616326 C43.9611571,40.067816 43.305359,39.4154713 43.3000458,38.6788783 C43.2939736,37.9090497 43.8526164,37.3239491 44.6086059,37.3092636 C45.4450521,37.2922594 46.0545496,37.8533995 46.0712481,38.6541448 C46.0894648,39.4935362 45.5384122,40.0539034 44.6898216,40.0616326 M36.992847,63.0307352 C36.2596283,63.0384644 35.6007941,62.3907572 35.5962123,61.6572559 C35.5916858,60.8820169 36.1495696,60.2930517 36.8994868,60.280685 C37.7458003,60.2659995 38.4053936,60.8835628 38.3955262,61.6812165 C38.3856589,62.4680493 37.8103175,63.0214602 36.992847,63.0307352 M61.1341179,28.5349958 C61.1318334,29.3805705 60.6119009,29.9471211 59.8293455,29.9556232 C59.0323687,29.9641253 58.4380517,29.3581558 58.4357721,28.5373145 C58.4342566,27.7813985 59.1226927,27.1035475 59.8703329,27.1251893 C60.6111419,27.146831 61.1363876,27.7319317 61.1341179,28.5349958 M15.0544275,24.3484733 C15.0475962,23.5577759 15.5796732,23.014413 16.3667827,23.0105306 C17.148579,23.0066838 17.7580765,23.634295 17.7558058,24.4419967 C17.7542814,25.2064148 17.178181,25.8185676 16.4548296,25.8262968 C15.6244557,25.8355718 15.0620177,25.2419691 15.0544275,24.3484733 M56.6021965,41.6093281 C55.872014,41.6093281 55.219252,40.9492542 55.2260832,40.2188446 C55.2329144,39.4327847 55.8295085,38.8476841 56.6113049,38.8592779 C57.4264983,38.8716446 58.0086709,39.4706578 57.9980446,40.2876345 C57.9874182,41.0992007 57.4485101,41.6093281 56.6021965,41.6093281 M36.8015725,21.8485401 C36.7947413,21.0593885 37.3306134,20.5137068 38.1162048,20.5113767 C38.8980011,20.5082964 39.5052216,21.1359076 39.5037064,21.946701 C39.5021855,22.7134378 38.9291212,23.3209531 38.2004567,23.3271365 C37.3617334,23.3348657 36.8091628,22.750538 36.8015725,21.8485401 M21.9946536,31.5783559 C22.7923895,31.5814609 23.371526,32.1889762 23.3685018,33.0190925 C23.3654538,33.7927857 22.8007388,34.3755676 22.0530986,34.3802051 C21.2120983,34.3856155 20.6678769,33.8036066 20.6663581,32.8992899 C20.6655999,32.1093654 21.20299,31.5752775 21.9946536,31.5783559 M21.2504291,12.8939378 C22.0162858,12.8970416 22.5589891,13.4574088 22.56051,14.2457875 C22.5620252,15.0681746 21.9540457,15.7274755 21.2026104,15.7158817 C20.4223322,15.7042879 19.8325693,15.0627641 19.8492679,14.2457875 C19.8659664,13.4759589 20.4731869,12.8908583 21.2504291,12.8939378" id="Shape" fill="#2E261C"></path>
                    </g>
                </g>
            </g>
        </g>
    </g>
</svg>