<?xml version="1.0" encoding="UTF-8"?>
<svg width="46px" height="64px" viewBox="0 0 46 64" version="1.1" xmlns="http://www.w3.org/2000/svg" xmlns:xlink="http://www.w3.org/1999/xlink">
    <title>Icons/72x72/microscope</title>
    <g id="Home" stroke="none" stroke-width="1" fill="none" fill-rule="evenodd">
        <g id="Home-1440---New" transform="translate(-1033.000000, -2516.000000)">
            <g id="Our-Promise" transform="translate(0.000000, 1840.000000)">
                <g id="icons" transform="translate(763.000000, 672.000000)">
                    <g id="proven" transform="translate(236.000000, 0.000000)">
                        <g id="Icons/72x72/microscope" transform="translate(21.000000, 0.000000)">
                            <rect id="Box" x="0" y="0" width="72" height="72"></rect>
                            <path d="M24.3238852,29.1928599 L28.4296429,32.6542749 L26.6204391,34.7435645 L22.5146814,31.2814177 L24.3238852,29.1928599 Z M41.3981257,6.68034405 L48.313008,12.5105962 L29.837469,33.8359858 L22.9225867,28.0050019 L41.3981257,6.68034405 Z M47.9051768,6.07616981 C49.814521,7.68686205 50.0392807,10.5189288 48.4073625,12.4025825 L48.3146399,12.5101572 L41.3997576,6.67917317 L41.4924802,6.57159854 C43.1251401,4.68794483 45.9958325,4.46620937 47.9051768,6.07616981 Z M14,48.8937995 L34.9085806,48.8937995 L34.9085806,45.6416794 L14,45.6416794 L14,48.8937995 Z M49.5772253,67 C49.5772253,62.7965397 45.5159744,59.3892779 40.5059857,59.3892779 C35.4967387,59.3892779 31.434746,62.7965397 31.434746,67 L49.5772253,67 Z" id="Shape" stroke="#2E261C" stroke-linecap="round" stroke-linejoin="round"></path>
                            <path d="M22.2928888,48.8879451 L22.3010484,48.8959949 C25.3260313,55.0987334 31.7565306,59.3878143 39.2151384,59.3878143 C49.5815276,59.3878143 58,51.0913955 58,40.8644877 C58,30.8176027 49.8908503,22.6463217 39.7937276,22.3492108" id="Path" stroke="#2E261C" stroke-linecap="round" stroke-linejoin="round"></path>
                        </g>
                    </g>
                </g>
            </g>
        </g>
    </g>
</svg>